<svg xmlns="http://www.w3.org/2000/svg" width="354" height="285" viewBox="0 0 354 285">
<g>
<path d="M 0.00 142.50 L 0.00 0.00 L 177.00 0.00 L 354.00 0.00 L 354.00 142.50 L 354.00 285.00 L 177.00 285.00 L 0.00 285.00 L 0.00 142.50 ZM 70.50 185.23 C71.08,184.81 71.50,178.70 71.50,170.58 L 71.50 156.65 L 76.31 153.82 C80.33,151.45 81.47,151.18 83.31,152.13 C88.45,154.80 88.33,155.12 80.27,159.94 C72.72,164.47 72.49,164.72 72.19,168.80 C72.02,171.11 72.20,173.00 72.59,173.00 C72.97,173.00 78.38,170.07 84.61,166.50 C90.84,162.93 96.34,160.00 96.85,160.00 C97.35,160.00 99.17,161.44 100.89,163.20 C103.70,166.07 104.18,166.25 105.55,164.88 C107.57,162.86 106.38,160.00 103.52,160.00 C102.27,160.00 96.90,157.46 91.57,154.36 C83.66,149.75 81.95,148.34 82.20,146.61 C82.44,144.92 83.20,144.50 86.00,144.50 C89.29,144.50 89.52,144.71 89.80,148.06 C90.02,150.75 90.80,152.04 92.95,153.31 C94.52,154.24 96.05,155.00 96.35,155.00 C96.65,155.00 97.03,152.64 97.20,149.75 L 97.50 144.50 L 101.82 144.19 C104.20,144.02 106.73,144.36 107.45,144.96 C109.40,146.57 112.16,145.10 111.80,142.62 C111.57,140.98 110.94,140.59 109.00,140.88 C107.62,141.09 101.10,141.32 94.50,141.38 C82.82,141.50 82.49,141.44 82.18,139.28 C81.95,137.66 82.75,136.51 85.11,135.08 C88.99,132.72 90.00,133.13 90.00,137.06 C90.00,139.75 90.29,140.00 93.50,140.00 L 97.00 140.00 L 97.00 134.57 C97.00,128.56 98.63,126.00 102.45,126.00 C105.28,126.00 107.25,123.82 106.41,121.63 C105.56,119.42 102.30,119.57 101.07,121.87 C100.10,123.69 83.03,134.00 80.99,134.00 C79.77,134.00 71.75,129.08 70.93,127.83 C70.24,126.78 70.98,121.00 71.81,121.00 C72.12,121.00 75.41,122.80 79.12,125.00 C86.80,129.57 87.57,129.69 91.00,126.97 C93.48,124.99 93.48,124.96 91.50,123.42 C90.40,122.56 85.32,119.53 80.22,116.68 L 70.94 111.50 L 71.22 106.03 C71.46,101.35 71.23,100.50 69.62,100.18 C67.24,99.70 65.85,101.86 67.07,104.13 C67.58,105.09 68.00,111.00 68.00,117.28 L 68.00 128.68 L 62.94 131.44 C58.43,133.89 57.55,134.06 54.92,132.97 C53.29,132.29 51.73,131.37 51.46,130.93 C51.18,130.48 54.23,128.22 58.23,125.89 C62.23,123.57 65.83,121.18 66.23,120.59 C67.36,118.92 67.14,113.00 65.95,113.00 C65.37,113.00 60.22,115.70 54.50,119.00 C48.78,122.30 43.32,125.00 42.36,125.00 C41.40,125.00 39.37,123.82 37.86,122.37 C34.81,119.45 32.00,119.73 32.00,122.97 C32.00,124.09 32.34,125.06 32.75,125.13 C33.16,125.20 34.43,125.36 35.58,125.48 C36.72,125.61 41.78,128.12 46.83,131.06 C55.00,135.83 56.00,136.72 56.00,139.27 C56.00,141.89 55.73,142.10 52.75,141.81 C49.78,141.53 49.47,141.17 49.19,137.74 C48.94,134.77 48.27,133.68 45.99,132.49 C41.49,130.17 41.00,130.56 41.00,136.50 L 41.00 142.00 L 36.99 142.00 C34.78,142.00 32.09,141.45 31.00,140.77 C29.37,139.75 28.73,139.84 27.30,141.27 C25.72,142.85 25.71,143.13 27.17,144.60 C28.42,145.85 29.21,145.96 30.82,145.10 C31.97,144.48 37.95,144.00 44.43,144.00 L 56.00 144.00 L 56.00 146.84 C56.00,148.91 55.31,149.99 53.45,150.84 C49.67,152.56 49.00,152.30 49.00,149.07 C49.00,145.85 46.53,144.38 43.00,145.50 C41.30,146.04 41.00,147.01 41.00,152.01 C41.00,158.26 40.54,158.94 35.59,159.95 C33.48,160.37 32.40,161.24 32.20,162.66 C31.72,165.96 35.09,166.61 37.49,163.68 C38.60,162.34 43.55,158.96 48.50,156.18 L 57.50 151.11 L 62.50 153.92 C67.11,156.50 67.52,157.05 67.81,160.86 C67.98,163.14 67.90,165.00 67.65,165.00 C67.39,165.00 63.97,163.15 60.06,160.90 C52.73,156.67 50.54,156.42 46.57,159.33 C44.77,160.64 45.46,161.22 56.40,167.62 L 68.17 174.50 L 67.59 179.59 C66.93,185.51 67.80,187.22 70.50,185.23 ZM 137.00 165.50 C137.00,163.57 137.45,162.00 138.00,162.00 C138.55,162.00 139.00,161.55 139.00,161.00 C139.00,160.45 137.20,160.00 135.00,160.00 C132.80,160.00 131.00,160.45 131.00,161.00 C131.00,161.55 131.45,162.00 132.00,162.00 C132.55,162.00 133.00,163.27 133.00,164.83 C133.00,167.96 133.66,169.00 135.67,169.00 C136.52,169.00 137.00,167.75 137.00,165.50 ZM 154.00 168.00 C154.00,167.45 153.10,167.00 152.00,167.00 C150.90,167.00 150.00,166.55 150.00,166.00 C150.00,165.45 150.84,165.00 151.88,165.00 C153.18,165.00 153.75,164.28 153.75,162.64 C153.75,160.56 153.28,160.27 149.88,160.27 L 146.00 160.27 L 146.00 164.64 L 146.00 169.00 L 150.00 169.00 C152.20,169.00 154.00,168.55 154.00,168.00 ZM 164.00 164.42 C164.00,159.00 161.70,158.64 161.18,163.97 C160.91,166.71 162.02,168.88 163.75,168.98 C163.89,168.99 164.00,166.94 164.00,164.42 ZM 169.78 167.17 C170.08,166.26 169.49,165.94 167.94,166.17 C166.68,166.35 165.46,167.10 165.22,167.83 C164.92,168.74 165.51,169.06 167.06,168.83 C168.32,168.65 169.54,167.90 169.78,167.17 ZM 180.00 167.50 C180.00,166.68 180.40,166.00 180.89,166.00 C181.38,166.00 182.05,166.68 182.36,167.50 C182.68,168.32 183.63,169.00 184.47,169.00 C185.62,169.00 186.00,167.87 186.00,164.50 C186.00,161.05 185.63,160.00 184.41,160.00 C183.53,160.00 182.58,160.90 182.29,162.00 C181.60,164.63 180.00,164.57 180.00,161.93 C180.00,160.49 179.46,159.96 178.25,160.19 C176.45,160.53 175.36,164.89 176.39,167.58 C177.12,169.47 180.00,169.40 180.00,167.50 ZM 206.00 167.57 C206.00,166.78 207.01,166.00 208.25,165.82 C209.90,165.59 210.50,164.83 210.50,163.00 C210.50,160.83 210.00,160.46 206.75,160.19 L 203.00 159.88 L 203.00 164.44 C203.00,167.83 203.39,169.00 204.50,169.00 C205.32,169.00 206.00,168.36 206.00,167.57 ZM 227.07 166.87 C227.91,165.30 227.91,164.11 227.09,162.30 C226.19,160.33 225.34,159.91 222.74,160.12 C218.56,160.47 217.00,161.68 217.00,164.57 C217.00,169.00 224.95,170.82 227.07,166.87 ZM 237.00 167.96 C237.00,167.25 237.60,167.25 238.93,167.96 C242.14,169.68 242.69,169.19 242.59,164.75 L 242.50 160.50 L 238.25 160.31 L 234.00 160.12 L 234.00 164.56 C234.00,167.84 234.39,169.00 235.50,169.00 C236.32,169.00 237.00,168.53 237.00,167.96 ZM 255.00 165.50 C255.00,163.57 255.45,162.00 256.00,162.00 C256.55,162.00 257.00,161.55 257.00,161.00 C257.00,160.45 255.20,160.00 253.00,160.00 C248.62,160.00 248.25,160.39 250.51,162.65 C251.34,163.48 251.75,164.60 251.42,165.13 C250.50,166.62 251.76,169.00 253.47,169.00 C254.55,169.00 255.00,167.98 255.00,165.50 ZM 267.64 167.50 C267.95,166.68 268.84,166.00 269.61,166.00 C270.37,166.00 271.00,165.55 271.00,165.00 C271.00,164.45 270.33,164.00 269.50,164.00 C268.67,164.00 268.00,163.55 268.00,163.00 C268.00,162.45 268.90,162.00 270.00,162.00 C271.10,162.00 272.00,161.57 272.00,161.04 C272.00,160.52 270.31,160.18 268.25,160.29 C264.93,160.48 264.46,160.83 264.18,163.33 C263.62,168.18 266.19,171.27 267.64,167.50 ZM 285.75 168.42 C287.56,168.05 288.00,167.29 288.00,164.50 C288.00,161.73 287.55,160.94 285.75,160.52 C281.21,159.48 278.00,161.07 278.00,164.36 C278.00,168.18 280.49,169.48 285.75,168.42 ZM 302.50 168.00 C302.85,167.43 302.01,167.00 300.56,167.00 C298.30,167.00 298.00,166.59 298.00,163.50 C298.00,161.06 297.55,160.00 296.50,160.00 C295.39,160.00 295.00,161.17 295.00,164.50 C295.00,168.96 295.03,169.00 298.44,169.00 C300.33,169.00 302.16,168.55 302.50,168.00 ZM 312.00 164.50 C312.00,161.17 311.61,160.00 310.50,160.00 C309.39,160.00 309.00,161.17 309.00,164.50 C309.00,167.83 309.39,169.00 310.50,169.00 C311.61,169.00 312.00,167.83 312.00,164.50 ZM 327.80 167.80 C329.43,166.17 329.31,162.51 327.59,161.08 C326.12,159.86 322.40,159.99 320.25,161.33 C318.11,162.67 318.76,166.97 321.25,167.97 C324.42,169.24 326.41,169.19 327.80,167.80 ZM 169.76 161.75 C169.28,160.30 165.00,159.42 165.00,160.76 C165.00,162.19 166.17,163.00 168.25,163.00 C169.34,163.00 169.99,162.46 169.76,161.75 ZM 187.50 149.72 C188.60,149.75 191.10,150.09 193.05,150.48 C197.54,151.39 203.21,149.14 205.58,145.52 C206.96,143.42 207.13,142.10 206.41,139.18 C205.42,135.18 202.53,133.22 194.00,130.79 C188.80,129.30 187.88,126.69 192.37,126.17 C196.84,125.66 199.55,126.73 200.81,129.48 C201.48,130.96 202.79,132.00 203.98,132.00 C205.76,132.00 206.00,131.35 206.00,126.54 L 206.00 121.08 L 195.91 121.29 C186.22,121.49 185.73,121.61 183.41,124.31 C180.86,127.28 180.28,131.78 182.03,135.06 C183.25,137.34 187.17,139.48 192.00,140.50 C196.74,141.49 198.36,142.86 196.89,144.63 C195.14,146.74 191.46,146.26 188.18,143.50 C186.55,142.12 184.26,141.00 183.11,141.00 C181.29,141.00 181.00,141.59 181.00,145.33 C181.00,150.21 181.69,151.38 183.95,150.37 C184.80,149.99 186.40,149.69 187.50,149.72 ZM 152.71 148.32 C153.13,147.22 152.60,146.15 151.18,145.20 C147.85,142.99 148.55,142.00 153.44,142.00 C158.65,142.00 160.24,143.58 156.49,145.00 C154.77,145.66 153.97,146.61 154.19,147.75 C154.47,149.22 155.85,149.55 162.76,149.79 C170.89,150.08 171.00,150.05 171.00,147.66 C171.00,146.33 170.42,144.76 169.70,144.17 C168.99,143.57 166.65,138.68 164.51,133.29 C162.37,127.91 160.19,122.92 159.65,122.20 C159.06,121.41 157.11,121.02 154.72,121.20 L 150.77 121.50 L 146.56 132.27 C144.25,138.20 141.83,143.57 141.18,144.22 C140.53,144.87 140.00,146.43 140.00,147.70 C140.00,149.85 140.40,150.00 146.03,150.00 C150.75,150.00 152.20,149.64 152.71,148.32 ZM 251.80 147.38 C252.01,145.93 251.45,145.09 250.05,144.72 C248.21,144.24 248.00,143.41 248.00,136.68 C248.00,128.29 248.56,126.00 250.61,126.00 C251.42,126.00 252.00,124.97 252.00,123.52 L 252.00 121.05 L 234.96 121.05 C220.05,121.06 217.84,121.27 217.28,122.71 C216.87,123.77 217.42,124.87 218.82,125.80 C220.77,127.09 221.00,128.13 221.00,135.50 C221.00,142.87 220.77,143.91 218.82,145.20 C217.40,146.15 216.87,147.22 217.29,148.32 C217.86,149.81 219.81,149.96 234.72,149.75 C250.96,149.51 251.51,149.43 251.80,147.38 ZM 278.71 148.32 C279.13,147.22 278.60,146.15 277.18,145.20 C275.23,143.91 275.00,142.87 275.00,135.50 C275.00,128.27 275.26,127.07 277.07,125.87 C278.45,124.95 278.91,123.92 278.46,122.75 C277.48,120.21 262.27,120.14 261.29,122.68 C260.87,123.78 261.40,124.85 262.82,125.80 C264.77,127.09 265.00,128.13 265.00,135.50 C265.00,142.87 264.77,143.91 262.82,145.20 C261.40,146.15 260.87,147.22 261.29,148.32 C261.82,149.70 263.38,150.00 270.00,150.00 C276.62,150.00 278.18,149.70 278.71,148.32 ZM 312.52 147.54 C321.75,142.13 321.81,130.42 312.63,123.58 C310.35,121.87 308.04,121.46 298.95,121.15 L 288.00 120.78 L 288.00 123.28 C288.00,124.66 288.67,126.05 289.50,126.36 C290.68,126.81 291.00,128.86 291.00,135.97 C291.00,143.33 290.72,145.00 289.50,145.00 C288.57,145.00 288.00,145.94 288.00,147.50 L 288.00 150.00 L 298.16 150.00 C307.16,150.00 308.81,149.72 312.52,147.54 ZM 65.75 148.43 C63.46,147.19 63.00,146.27 63.00,142.95 C63.00,139.54 63.46,138.69 66.21,137.02 C69.31,135.13 69.53,135.13 72.46,136.83 C74.96,138.28 75.55,139.34 75.80,142.75 C76.08,146.48 75.81,147.05 73.10,148.45 C69.48,150.32 69.23,150.32 65.75,148.43 ZM 221.00 164.50 C221.00,162.81 221.46,161.99 222.25,162.25 C222.94,162.48 223.50,163.49 223.50,164.50 C223.50,165.51 222.94,166.52 222.25,166.75 C221.46,167.01 221.00,166.19 221.00,164.50 ZM 237.00 163.00 C237.00,162.45 237.48,162.00 238.06,162.00 C238.64,162.00 238.84,162.45 238.50,163.00 C238.16,163.55 237.68,164.00 237.44,164.00 C237.20,164.00 237.00,163.55 237.00,163.00 ZM 282.00 164.50 C282.00,162.81 282.46,161.99 283.25,162.25 C283.94,162.48 284.50,163.49 284.50,164.50 C284.50,165.51 283.94,166.52 283.25,166.75 C282.46,167.01 282.00,166.19 282.00,164.50 ZM 322.00 164.50 C322.00,162.94 322.57,162.00 323.50,162.00 C324.43,162.00 325.00,162.94 325.00,164.50 C325.00,166.06 324.43,167.00 323.50,167.00 C322.57,167.00 322.00,166.06 322.00,164.50 ZM 151.00 136.57 C151.00,136.33 151.47,134.90 152.04,133.40 C153.14,130.50 154.31,130.97 155.45,134.75 C156.04,136.68 155.76,137.00 153.57,137.00 C152.16,137.00 151.00,136.80 151.00,136.57 ZM 232.64 144.82 C231.74,144.31 231.00,142.80 231.00,141.45 C231.00,139.32 231.45,139.00 234.50,139.00 C237.69,139.00 238.00,139.25 238.00,141.88 C238.00,145.05 235.50,146.42 232.64,144.82 ZM 231.67 133.33 C230.28,131.95 231.03,127.05 232.78,126.12 C235.64,124.59 238.00,126.59 238.00,130.55 C238.00,133.67 237.73,134.00 235.17,134.00 C233.61,134.00 232.03,133.70 231.67,133.33 ZM 301.42 143.66 C301.14,142.93 301.04,138.77 301.21,134.42 C301.45,127.95 301.80,126.46 303.19,126.20 C306.53,125.56 309.00,129.55 309.00,135.57 C309.00,138.63 308.53,142.00 307.96,143.07 C306.78,145.28 302.21,145.70 301.42,143.66 Z" fill="rgba(0,0,0,1)"/>
</g>
</svg>